HIERARCHY
ROOT Hips
{
	OFFSET 0.000000 35.082581 0.000000
	CHANNELS 6 Xposition Yposition Zposition Xrotation Yrotation Zrotation 
	JOINT Spine
	{
		OFFSET 0.000000 6.876099 0.125700
		CHANNELS 3 Xrotation Yrotation Zrotation
		JOINT Spine1
		{
			OFFSET 0.000000 5.730043 0.104720
			CHANNELS 3 Xrotation Yrotation Zrotation
			JOINT Spine1_split
			{
				OFFSET 0.000000 5.730043 0.104720
				CHANNELS 3 Xrotation Yrotation Zrotation
				JOINT Spine2
				{
					OFFSET 0.000000 5.730043 0.104720
					CHANNELS 3 Xrotation Yrotation Zrotation
					JOINT Neck
					{
						OFFSET 0.000000 10.314075 0.188496
						CHANNELS 3 Xrotation Yrotation Zrotation
						JOINT Head
						{
							OFFSET 0.000000 7.643700 -2.377400
							CHANNELS 3 Xrotation Yrotation Zrotation
							JOINT HeadTop_End
							{
								OFFSET 0.000000 43.788605 -13.619600
								CHANNELS 3 Xrotation Yrotation Zrotation
								End Site
								{
									OFFSET 0.000000 0.000000 0.000000
								}
							}
						}
					}
					JOINT LeftShoulder
					{
						OFFSET 2.196100 4.412489 0.087492
						CHANNELS 3 Xrotation Yrotation Zrotation
						JOINT LeftShoulder_split
						{
							OFFSET 2.196100 4.412489 0.087492
							CHANNELS 3 Xrotation Yrotation Zrotation
							JOINT LeftArm
							{
								OFFSET 8.771219 -2.981674 -0.026999
								CHANNELS 3 Xrotation Yrotation Zrotation
								JOINT LeftForeArm
								{
									OFFSET 8.512804 0.000000 -0.000000
									CHANNELS 3 Xrotation Yrotation Zrotation
									JOINT LeftHand
									{
										OFFSET 18.484802 0.000000 -0.000000
										CHANNELS 3 Xrotation Yrotation Zrotation
										JOINT LeftHandThumb1
										{
											OFFSET 2.499420 -1.158070 2.653252
											CHANNELS 3 Xrotation Yrotation Zrotation
											JOINT LeftHandThumb2
											{
												OFFSET 2.370079 -1.368366 1.368366
												CHANNELS 3 Xrotation Yrotation Zrotation
												JOINT LeftHandThumb3
												{
													OFFSET 2.676727 -1.545410 1.545409
													CHANNELS 3 Xrotation Yrotation Zrotation
													JOINT LeftHandThumb4
													{
														OFFSET 1.692226 -0.977005 0.977007
														CHANNELS 3 Xrotation Yrotation Zrotation
														End Site
														{
															OFFSET 0.000000 0.000000 0.000000
														}
													}
												}
											}
										}
										JOINT LeftHandIndex1
										{
											OFFSET 7.924831 -0.457527 2.345128
											CHANNELS 3 Xrotation Yrotation Zrotation
											JOINT LeftHandIndex2
											{
												OFFSET 3.643303 0.000000 0.000000
												CHANNELS 3 Xrotation Yrotation Zrotation
												JOINT LeftHandIndex3
												{
													OFFSET 3.810799 0.000000 0.000000
													CHANNELS 3 Xrotation Yrotation Zrotation
													JOINT LeftHandIndex4
													{
														OFFSET 2.403702 0.000000 0.000000
														CHANNELS 3 Xrotation Yrotation Zrotation
														End Site
														{
															OFFSET 0.000000 0.000000 0.000000
														}
													}
												}
											}
										}
										JOINT LeftHandMiddle1
										{
											OFFSET 8.563995 0.000000 -0.000000
											CHANNELS 3 Xrotation Yrotation Zrotation
											JOINT LeftHandMiddle2
											{
												OFFSET 3.861618 0.000000 0.000000
												CHANNELS 3 Xrotation Yrotation Zrotation
												JOINT LeftHandMiddle3
												{
													OFFSET 3.701603 0.000000 0.000000
													CHANNELS 3 Xrotation Yrotation Zrotation
													JOINT LeftHandMiddle4
													{
														OFFSET 2.322544 0.000000 0.000000
														CHANNELS 3 Xrotation Yrotation Zrotation
														End Site
														{
															OFFSET 0.000000 0.000000 0.000000
														}
													}
												}
											}
										}
										JOINT LeftHandRing1
										{
											OFFSET 8.426460 -0.424637 -3.286992
											CHANNELS 3 Xrotation Yrotation Zrotation
											JOINT LeftHandRing2
											{
												OFFSET 3.126408 0.000000 0.000000
												CHANNELS 3 Xrotation Yrotation Zrotation
												JOINT LeftHandRing3
												{
													OFFSET 3.085026 0.000000 0.000000
													CHANNELS 3 Xrotation Yrotation Zrotation
													JOINT LeftHandRing4
													{
														OFFSET 1.644005 0.000000 0.000000
														CHANNELS 3 Xrotation Yrotation Zrotation
														End Site
														{
															OFFSET 0.000000 0.000000 0.000000
														}
													}
												}
											}
										}
									}
								}
							}
						}
					}
					JOINT RightShoulder
					{
						OFFSET -2.196100 4.412496 0.070690
						CHANNELS 3 Xrotation Yrotation Zrotation
						JOINT RightShoulder_split
						{
							OFFSET -2.196100 4.412496 0.070690
							CHANNELS 3 Xrotation Yrotation Zrotation
							JOINT RightArm
							{
								OFFSET -8.771282 -2.981682 -0.094208
								CHANNELS 3 Xrotation Yrotation Zrotation
								JOINT RightForeArm
								{
									OFFSET -8.494598 0.000000 0.000000
									CHANNELS 3 Xrotation Yrotation Zrotation
									JOINT RightHand
									{
										OFFSET -18.483803 0.000000 0.000001
										CHANNELS 3 Xrotation Yrotation Zrotation
										JOINT RightHandThumb1
										{
											OFFSET -2.527351 -1.008072 2.575253
											CHANNELS 3 Xrotation Yrotation Zrotation
											JOINT RightHandThumb2
											{
												OFFSET -2.321518 -1.340328 1.340329
												CHANNELS 3 Xrotation Yrotation Zrotation
												JOINT RightHandThumb3
												{
													OFFSET -2.657753 -1.534454 1.534455
													CHANNELS 3 Xrotation Yrotation Zrotation
													JOINT RightHandThumb4
													{
														OFFSET -1.807510 -1.043568 1.043567
														CHANNELS 3 Xrotation Yrotation Zrotation
														End Site
														{
															OFFSET 0.000000 0.000000 0.000000
														}
													}
												}
											}
										}
										JOINT RightHandIndex1
										{
											OFFSET -8.811420 0.015533 2.887987
											CHANNELS 3 Xrotation Yrotation Zrotation
											JOINT RightHandIndex2
											{
												OFFSET -3.537502 0.000000 0.000000
												CHANNELS 3 Xrotation Yrotation Zrotation
												JOINT RightHandIndex3
												{
													OFFSET -3.356201 0.000000 0.000000
													CHANNELS 3 Xrotation Yrotation Zrotation
													JOINT RightHandIndex4
													{
														OFFSET -1.933098 0.000000 0.000000
														CHANNELS 3 Xrotation Yrotation Zrotation
														End Site
														{
															OFFSET 0.000000 0.000000 0.000000
														}
													}
												}
											}
										}
										JOINT RightHandMiddle1
										{
											OFFSET -8.178135 0.000000 0.000000
											CHANNELS 3 Xrotation Yrotation Zrotation
											JOINT RightHandMiddle2
											{
												OFFSET -3.901302 0.000000 0.000000
												CHANNELS 3 Xrotation Yrotation Zrotation
												JOINT RightHandMiddle3
												{
													OFFSET -3.909599 0.000000 0.000000
													CHANNELS 3 Xrotation Yrotation Zrotation
													JOINT RightHandMiddle4
													{
														OFFSET -2.376003 0.000000 0.000000
														CHANNELS 3 Xrotation Yrotation Zrotation
														End Site
														{
															OFFSET 0.000000 0.000000 0.000000
														}
													}
												}
											}
										}
										JOINT RightHandRing1
										{
											OFFSET -7.559013 0.014137 -2.865403
											CHANNELS 3 Xrotation Yrotation Zrotation
											JOINT RightHandRing2
											{
												OFFSET -3.449306 0.000000 0.000000
												CHANNELS 3 Xrotation Yrotation Zrotation
												JOINT RightHandRing3
												{
													OFFSET -3.362106 0.000000 0.000000
													CHANNELS 3 Xrotation Yrotation Zrotation
													JOINT RightHandRing4
													{
														OFFSET -2.076401 0.000000 0.000000
														CHANNELS 3 Xrotation Yrotation Zrotation
														End Site
														{
															OFFSET 0.000000 0.000000 0.000000
														}
													}
												}
											}
										}
									}
								}
							}
						}
					}
				}
			}
		}
	}
	JOINT LeftUpLeg
	{
		OFFSET 10.205400 -3.823500 0.155100
		CHANNELS 3 Xrotation Yrotation Zrotation
		JOINT LeftLeg
		{
			OFFSET 0.708757 -12.982077 0.567790
			CHANNELS 3 Xrotation Yrotation Zrotation
			JOINT LeftFoot
			{
				OFFSET -0.708756 -10.717838 -2.184338
				CHANNELS 3 Xrotation Yrotation Zrotation
				JOINT LeftToeBase
				{
					OFFSET 0.108149 -7.191104 7.560241
					CHANNELS 3 Xrotation Yrotation Zrotation
					JOINT LeftToe_End
					{
						OFFSET 0.070230 0.081724 4.490308
						CHANNELS 3 Xrotation Yrotation Zrotation
						End Site
						{
							OFFSET 0.000000 0.000000 0.000000
						}
					}
				}
			}
		}
	}
	JOINT RightUpLeg
	{
		OFFSET -10.205400 -3.823500 0.005500
		CHANNELS 3 Xrotation Yrotation Zrotation
		JOINT RightLeg
		{
			OFFSET -0.708756 -12.982134 0.610632
			CHANNELS 3 Xrotation Yrotation Zrotation
			JOINT RightFoot
			{
				OFFSET 0.708754 -10.717769 -1.945823
				CHANNELS 3 Xrotation Yrotation Zrotation
				JOINT RightToeBase
				{
					OFFSET -0.108140 -7.191069 7.372968
					CHANNELS 3 Xrotation Yrotation Zrotation
					JOINT RightToe_End
					{
						OFFSET -0.070227 0.081735 4.479403
						CHANNELS 3 Xrotation Yrotation Zrotation
						End Site
						{
							OFFSET 0.000000 0.000000 0.000000
						}
					}
				}
			}
		}
	}
}
MOTION
Frames: 5
Frame Time: 0.016667
0.292200 16.907284 -8.301814 0.290732 0.689210 0.805471 1.234801 0.292602 -0.047114 0.110009 0.122969 -0.090715 0.000000 0.000000 0.000000 0.108808 0.114775 -0.092286 -0.391164 0.001168 0.119094 -1.124861 0.498129 0.197439 0.000000 -0.000000 0.000000 0.606871 -3.284652 -22.051935 0.000000 0.000000 0.000000 11.464575 -16.354598 -52.988522 0.000006 -20.361383 0.000023 -6.670425 11.936413 -5.315175 -8.139835 -14.751892 10.508524 11.522755 33.951398 -1.839716 3.775268 9.818948 17.836006 -0.000005 0.000001 -0.000006 -0.453778 -5.320372 -4.184402 0.332707 1.947935 -19.383537 0.050432 0.767895 -7.515330 0.000000 -0.000000 -0.000003 -0.401525 -0.921336 -7.463550 1.036274 3.328487 -34.578024 0.002804 -0.181636 1.772746 -0.000001 0.000000 -0.000001 -0.149547 2.814373 -20.128142 0.105542 1.108096 -10.879708 0.129572 1.226655 -12.060774 0.000001 0.000000 -0.000001 -0.115213 9.903027 22.054922 0.000000 0.000000 0.000000 7.750426 7.038399 56.271979 0.000017 19.886634 0.000010 -2.747026 -6.054056 1.890079 -17.666045 6.240250 -1.517371 -4.146461 -35.461413 -9.882255 3.008623 -18.516405 -20.364318 0.000001 0.000000 0.000006 13.894426 5.077787 9.899983 0.129266 -1.090761 13.516387 0.009179 0.292409 -3.591904 0.000000 0.000001 0.000001 -0.138701 -1.041596 7.048782 0.785978 -2.591020 33.745393 0.123933 -1.068308 13.232931 -0.000000 0.000000 -0.000003 0.562739 -5.309935 11.245065 0.534004 -2.167219 27.681005 0.310750 -1.674293 21.027639 -0.000000 0.000000 0.000002 -6.325864 -1.671257 16.298781 110.747891 5.396800 1.382941 16.138919 0.129894 -20.668149 24.378837 18.681291 38.024763 -0.000000 0.000001 0.000000 -3.195745 -0.433404 -17.130091 111.631963 6.574171 0.160938 6.634203 -0.411911 15.030613 -5.654792 -34.409277 -42.107529 0.000000 0.000002 0.000000 
0.298455 16.907578 -8.304261 0.298450 0.606996 0.696419 1.200835 0.312283 -0.037865 0.052092 0.122970 -0.079783 0.000000 0.000000 0.000000 0.095956 0.114775 -0.080994 -0.228474 -0.005407 0.129676 0.329910 0.494720 0.033181 -0.000000 0.000000 0.000000 0.608515 -3.276015 -22.033975 0.000000 0.000000 0.000000 11.676365 -16.033972 -52.975442 0.000025 -20.991222 0.000016 -6.051221 11.322428 -4.940438 -8.139850 -14.751897 10.508531 11.522772 33.951378 -1.839735 3.775259 9.818937 17.835987 -0.000005 0.000003 -0.000000 -0.453787 -5.320383 -4.184392 0.332706 1.947940 -19.383537 0.050444 0.767899 -7.515358 -0.000001 0.000000 0.000000 -0.401544 -0.921339 -7.463571 1.036266 3.328487 -34.577997 0.002825 -0.181629 1.772735 -0.000003 -0.000001 -0.000001 -0.149552 2.814372 -20.128163 0.105535 1.108090 -10.879710 0.129589 1.226661 -12.060768 0.000001 -0.000000 -0.000002 -0.112308 9.880038 22.058262 0.000000 0.000000 0.000000 7.556007 7.063321 56.310634 -0.000010 19.520834 -0.000007 -3.871954 -5.621836 1.949118 -17.631776 6.226395 -1.472153 -4.122556 -35.426497 -9.858949 2.892193 -18.401530 -20.514429 -0.000002 -0.000005 0.000004 13.897254 5.063036 9.896199 0.129263 -1.090761 13.516406 0.009204 0.292935 -3.598302 -0.000001 0.000000 0.000000 -0.138552 -1.041046 7.042433 0.785989 -2.591025 33.745400 0.123925 -1.068302 13.232927 0.000000 0.000000 0.000001 0.562412 -5.309470 11.238696 0.534001 -2.167231 27.680979 0.310597 -1.673853 21.021885 -0.000001 -0.000002 0.000002 -6.192103 -1.695697 16.442331 110.773517 5.281553 1.276946 16.021156 0.174106 -20.701653 24.379008 18.681418 38.024671 0.000002 0.000000 0.000002 -3.362407 -0.419798 -16.999294 111.654748 6.418175 0.074558 6.756841 -0.313689 15.024142 -5.647609 -34.425608 -42.124259 0.000003 -0.000001 0.000001 
0.304653 16.907860 -8.306340 0.304503 0.526194 0.587405 1.163617 0.329607 -0.028231 -0.003815 0.122969 -0.069357 0.000000 0.000000 0.000000 0.082490 0.114775 -0.070304 -0.071076 -0.012587 0.139877 1.744315 0.480030 -0.128429 -0.000000 -0.000000 0.000000 0.612541 -3.237233 -22.011268 0.000000 0.000000 0.000000 11.987006 -15.467812 -52.997572 0.000019 -21.987793 0.000015 -5.382003 10.694940 -4.502712 -8.139861 -14.751907 10.508525 11.522781 33.951375 -1.839746 3.775252 9.818938 17.836004 -0.000000 -0.000000 -0.000004 -0.453792 -5.320379 -4.184392 0.332716 1.947941 -19.383537 0.050430 0.767893 -7.515348 0.000000 -0.000000 0.000001 -0.401550 -0.921339 -7.463577 1.036299 3.328487 -34.578017 0.002809 -0.181642 1.772741 0.000000 0.000000 0.000001 -0.149546 2.814363 -20.128166 0.105512 1.108088 -10.879704 0.129598 1.226663 -12.060778 0.000001 0.000002 0.000003 -0.109597 9.836592 22.070909 0.000000 0.000000 0.000000 7.347453 6.953244 56.327904 0.000005 19.192803 -0.000001 -5.078328 -5.110208 2.168250 -17.553651 6.187626 -1.350066 -4.048879 -35.369380 -9.802751 2.674064 -18.062186 -20.788770 -0.000003 0.000001 0.000002 13.900068 5.031335 9.920348 0.129397 -1.091422 13.524787 0.009118 0.291299 -3.578278 0.000002 0.000000 0.000001 -0.138978 -1.042685 7.061647 0.786359 -2.591589 33.753716 0.124036 -1.068727 13.238196 0.000001 0.000001 0.000001 0.563432 -5.310874 11.257977 0.534326 -2.167821 27.689329 0.311101 -1.675174 21.039313 -0.000001 -0.000000 -0.000000 -6.060418 -1.706735 16.583054 110.796802 5.154643 1.181915 15.904362 0.237744 -20.738092 24.379363 18.681419 38.024104 0.000001 -0.000002 0.000001 -3.522940 -0.406376 -16.868288 111.673552 6.259306 -0.010633 6.879000 -0.211151 15.018667 -5.641600 -34.439477 -42.138668 -0.000005 -0.000001 0.000004 
0.310834 16.908039 -8.308278 0.309459 0.446227 0.478464 1.124365 0.345500 -0.018403 -0.058467 0.122970 -0.059246 0.000000 0.000000 0.000000 0.068642 0.114775 -0.059990 0.083013 -0.020142 0.149842 3.133420 0.460802 -0.287752 -0.000000 0.000000 0.000000 0.620310 -3.169133 -21.988761 0.000000 0.000000 0.000000 12.328131 -14.761514 -53.058935 0.000002 -23.142236 -0.000007 -4.776235 10.167332 -4.082458 -8.139825 -14.751884 10.508521 11.522762 33.951402 -1.839728 3.775259 9.818938 17.836006 -0.000008 0.000002 -0.000005 -0.453762 -5.320374 -4.184389 0.332684 1.947939 -19.383529 0.050452 0.767907 -7.515358 0.000002 0.000000 0.000000 -0.401520 -0.921339 -7.463580 1.036270 3.328482 -34.578024 0.002817 -0.181629 1.772738 0.000002 -0.000001 -0.000001 -0.149535 2.814368 -20.128159 0.105530 1.108090 -10.879725 0.129582 1.226659 -12.060775 -0.000000 0.000001 0.000001 -0.108014 9.779254 22.093331 0.000000 0.000000 0.000000 7.155702 6.738900 56.317136 -0.000002 18.933015 -0.000004 -6.140819 -4.611282 2.521077 -17.448372 6.132595 -1.164785 -3.936276 -35.319284 -9.728650 2.386647 -17.518117 -21.076359 -0.000000 -0.000001 0.000002 13.899340 4.991660 9.992872 0.130043 -1.093984 13.557009 0.008746 0.285671 -3.508968 -0.000003 -0.000000 -0.000000 -0.140438 -1.048361 7.128616 0.787815 -2.593754 33.785729 0.124412 -1.070379 13.259221 0.000001 0.000001 -0.000002 0.566990 -5.315720 11.325262 0.535536 -2.170138 27.721356 0.312871 -1.679789 21.100066 0.000002 0.000000 0.000002 -5.932312 -1.705194 16.723436 110.818344 5.015571 1.096615 15.787642 0.316750 -20.773634 24.378996 18.682171 38.025951 0.000001 -0.000003 -0.000001 -3.680007 -0.394811 -16.735772 111.689651 6.113975 -0.094381 7.001331 -0.123740 15.014931 -5.635783 -34.453079 -42.154456 -0.000004 -0.000002 -0.000001 
0.317004 16.908119 -8.310270 0.313885 0.366561 0.369564 1.084299 0.360852 -0.008506 -0.112616 0.122970 -0.049261 0.000000 0.000000 0.000000 0.054640 0.117964 -0.049826 0.235781 -0.027848 0.159711 4.512339 0.440022 -0.446023 0.000000 -0.000000 -0.000000 0.631744 -3.067929 -21.968161 0.000000 0.000000 0.000000 12.694673 -13.898002 -53.165404 -0.000004 -24.452531 -0.000001 -4.211914 9.725563 -3.679041 -8.139822 -14.751884 10.508539 11.522778 33.951388 -1.839736 3.775265 9.818948 17.836013 -0.000003 -0.000002 -0.000004 -0.453768 -5.320369 -4.184399 0.332698 1.947941 -19.383542 0.050431 0.767897 -7.515360 0.000003 0.000001 -0.000001 -0.401508 -0.921344 -7.463591 1.036272 3.328496 -34.578024 0.002821 -0.181632 1.772747 -0.000001 -0.000000 0.000001 -0.149524 2.814370 -20.128165 0.105538 1.108091 -10.879711 0.129589 1.226654 -12.060780 0.000001 0.000001 0.000001 -0.107057 9.704567 22.126610 0.000000 0.000000 0.000000 6.969242 6.423791 56.272112 0.000000 18.707393 0.000026 -7.071001 -4.108235 3.029967 -17.041146 5.892688 -0.671570 -3.772896 -35.227230 -9.621896 2.184501 -17.550757 -21.109890 0.000001 -0.000002 -0.000000 13.889879 4.875652 10.288492 0.134043 -1.110478 13.765401 0.007687 0.267623 -3.287046 0.000002 -0.000001 -0.000002 -0.147222 -1.075467 7.447949 0.797246 -2.607780 33.993647 0.125437 -1.074745 13.314356 -0.000001 0.000000 0.000002 0.585153 -5.340282 11.666601 0.543456 -2.185084 27.929315 0.318438 -1.694160 21.289391 0.000001 -0.000000 -0.000000 -5.808197 -1.688031 16.859465 110.838514 4.871971 1.027407 15.673040 0.411450 -20.819026 24.380008 18.682000 38.024063 0.000001 -0.000001 0.000001 -3.835665 -0.382445 -16.601625 111.703987 5.988455 -0.174469 7.124138 -0.055205 15.011251 -5.631713 -34.461467 -42.162823 0.000005 0.000002 -0.000001 
